<?xml version="1.0" standalone="no"?>
<!DOCTYPE svg PUBLIC "-//W3C//DTD SVG 20010904//EN"
 "http://www.w3.org/TR/2001/REC-SVG-20010904/DTD/svg10.dtd">
<svg version="1.0" xmlns="http://www.w3.org/2000/svg"
 width="1280.000000pt" height="1280.000000pt" viewBox="0 0 1280.000000 1280.000000"
 preserveAspectRatio="xMidYMid meet">
<metadata>
Created by potrace 1.15, written by Peter Selinger 2001-2017
</metadata>
<g transform="translate(0.000000,1280.000000) scale(0.100000,-0.100000)"
fill="#000000" stroke="none">
<path d="M7143 11590 l-661 -5 -43 -30 c-37 -27 -55 -56 -153 -250 -197 -387
-372 -646 -642 -947 -491 -546 -1186 -969 -2209 -1343 -151 -55 -185 -77 -215
-140 l-22 -46 21 -1022 c27 -1305 23 -1205 47 -1248 10 -20 126 -173 256 -340
252 -323 272 -343 360 -355 52 -7 92 5 433 136 562 216 1067 452 1441 675 70
42 128 74 130 72 2 -2 7 -1031 12 -2287 6 -1516 13 -2293 19 -2310 16 -37 718
-1038 745 -1060 13 -11 44 -26 69 -34 43 -13 141 -5 1390 110 1515 140 1405
124 1463 218 l30 48 13 561 c6 309 21 985 33 1502 11 517 29 1347 40 1845 11
498 27 1211 35 1585 8 374 17 779 20 900 6 287 12 559 30 1360 8 363 22 998
31 1411 9 413 14 767 10 786 -9 51 -59 114 -108 139 -40 21 -79 24 -563 50
-561 31 -563 31 -2012 19z"/>
</g>
</svg>
